# xmcd CD database file
#
# Track frame offsets:
#	150
#	8867
#	26602
#	42570
#	58630
#	77610
#	94462
#	112747
#	124727
#	150685
#	164275
#	182382
#	203742
#	216962
#	232927
#	251860
#	275422
#	291687
#	313265
#	328232
#
# Disc length: 4597 seconds
#
# Revision: 2
# Processed by: cddbd v1.4b41PL1 Copyright (c) Steve Scherf et al.
# Submitted via: Feurio! 1.50.2ß - http://www.feurio.com
#
DISCID=2311f314
DTITLE=Various Artist - 40 Jahre Radio Hits aus Luxemburg Teil 3
DYEAR=1900
DGENRE=
TTITLE0=Paul Anka - Diana
TTITLE1=David Hasselhoff - Looking for Freedom
TTITLE2=Village People  - Go West
TTITLE3=Londonbeat - You bring on the sun
TTITLE4=Boney M.  - Rivers of Babylon
TTITLE5=Toto Cutugno - Serenata
TTITLE6=The Hollies - The air that I breathe
TTITLE7=Desmond Dekker - You can get it if you really want
TTITLE8=Barry Ryan - Eloise
TTITLE9=Lobo - Me and you and a dog named Boo
TTITLE10=Dr. Alban - Sing Hallelujah!
TTITLE11=Bronksi Beat - It ain´t necessarity so
TTITLE12=Percy Sledge - When a man loves a woman
TTITLE13=Status Quo - Rockin´all over the world
TTITLE14=DJ Bobo - There´s a party
TTITLE15=Scorpions - Wind of Change
TTITLE16=Jennifer Rush - 25 Lovers
TTITLE17=Uriah Heep - Lady in Black
TTITLE18=Engelbert - Release me
TTITLE19=Al Corley - Square Rooms
EXTD=
EXTT0=
EXTT1=
EXTT2=
EXTT3=
EXTT4=
EXTT5=
EXTT6=
EXTT7=
EXTT8=
EXTT9=
EXTT10=
EXTT11=
EXTT12=
EXTT13=
EXTT14=
EXTT15=
EXTT16=
EXTT17=
EXTT18=
EXTT19=
PLAYORDER=
